<?xml version="1.0" encoding="UTF-8"?>
<svg version="1.1" xmlns="http://www.w3.org/2000/svg" width="236" height="236">
<path d="M0 0 C4.66463827 3.30411878 5.11883785 5.35651356 7 11 C12.28 11 17.56 11 23 11 C23 12.32 23 13.64 23 15 C23.59014893 14.99476318 24.18029785 14.98952637 24.78833008 14.98413086 C27.46304255 14.96333953 30.13773801 14.95033299 32.8125 14.9375 C33.74126953 14.92912109 34.67003906 14.92074219 35.62695312 14.91210938 C36.51962891 14.90888672 37.41230469 14.90566406 38.33203125 14.90234375 C39.56530151 14.89448853 39.56530151 14.89448853 40.82348633 14.88647461 C43 15 43 15 46 16 C46 40.42 46 64.84 46 90 C44.35 90.33 42.7 90.66 41 91 C39 89 39 89 38.75949097 86.177948 C38.76393219 84.97437653 38.76837341 83.77080505 38.77294922 82.53076172 C38.77265717 81.86722687 38.77236511 81.20369202 38.77206421 80.52005005 C38.77345944 78.32313028 38.78902933 76.12654814 38.8046875 73.9296875 C38.80841695 72.40797104 38.81126424 70.88625219 38.81326294 69.36453247 C38.82090477 65.35643908 38.84055787 61.3484903 38.8626709 57.3404541 C38.88311756 53.25172888 38.89226212 49.16298034 38.90234375 45.07421875 C38.92380335 37.04940536 38.95898986 29.02473732 39 21 C33.72 21 28.44 21 23 21 C23.495 22.485 23.495 22.485 24 24 C23.06894211 24.98529428 22.12987519 25.96302444 21.1875 26.9375 C20.66542969 27.48277344 20.14335937 28.02804688 19.60546875 28.58984375 C16.12802561 31.64424028 11.7844178 31.26259942 7.40234375 31.421875 C6.65344376 31.44977112 5.90454376 31.47766724 5.13294983 31.50640869 C3.54518797 31.56278711 1.95732611 31.6164068 0.36938477 31.66748047 C-2.02997829 31.74889646 -4.42771016 31.85273956 -6.82617188 31.95703125 C-23.79239708 32.58193276 -23.79239708 32.58193276 -30 29 C-31.2043457 27.25415039 -31.2043457 27.25415039 -32.25 25.3125 C-33.1575 24.219375 -34.065 23.12625 -35 22 C-39.62 22 -44.24 22 -49 22 C-49 61.93 -49 101.86 -49 143 C-19.795 143.495 -19.795 143.495 10 144 C10.66 144.66 11.32 145.32 12 146 C13.4606285 143.35261084 14 142.10551666 14 139 C12.700625 138.855625 11.40125 138.71125 10.0625 138.5625 C6.125 138.125 6.125 138.125 5 137 C4.54234333 134.01110641 4.29679049 131.01030352 4 128 C-2.93 127.505 -2.93 127.505 -10 127 C-10.33 125.35 -10.66 123.7 -11 122 C-9 120 -9 120 -6.84521484 119.77294922 C-5.54124756 119.78865967 -5.54124756 119.78865967 -4.2109375 119.8046875 C-3.26992187 119.81113281 -2.32890625 119.81757813 -1.359375 119.82421875 C-0.37453125 119.84097656 0.6103125 119.85773438 1.625 119.875 C2.61757812 119.88402344 3.61015625 119.89304687 4.6328125 119.90234375 C7.08878134 119.92595884 9.54427168 119.95889201 12 120 C12.66 118.02 13.32 116.04 14 114 C12.515 113.01 12.515 113.01 11 112 C10.5 109.6875 10.5 109.6875 11 107 C13.1875 104.4375 13.1875 104.4375 16 102 C16.86625 101.236875 17.7325 100.47375 18.625 99.6875 C21 98 21 98 24 98 C26.1875 100 26.1875 100 28 102 C29.65 101.34 31.3 100.68 33 100 C33 98.02 33 96.04 33 94 C38.97802937 91.79072828 43.73960391 92.06786859 50 93 C50 95.31 50 97.62 50 100 C52.80764728 100.77426109 52.80764728 100.77426109 56 101 C57.36161311 100.03886134 58.69855198 99.04115841 60 98 C63.40112398 98.21257025 65.41377075 99.89868873 68 102 C69.0828125 102.680625 69.0828125 102.680625 70.1875 103.375 C72 105 72 105 72.9375 107.3125 C73.01947797 110.83755253 71.5854381 112.89518372 70 116 C70.19530151 118.29887008 70.19530151 118.29887008 71 120 C73.31 120.33 75.62 120.66 78 121 C78.22126178 123.45779976 78.42750395 125.91527648 78.625 128.375 C78.72167969 129.42300781 78.72167969 129.42300781 78.8203125 130.4921875 C78.96119739 132.32369111 78.98761659 134.16312748 79 136 C76.4345406 138.5654594 74.52313332 138.54046087 71 139 C70.21717352 140.79199472 70.21717352 140.79199472 70 143 C70.495 143.66 70.99 144.32 71.5 145 C73 147 73 147 72.9375 148.875 C71.61904794 151.86349134 69.95701905 154.39064126 68 157 C67.34 157 66.68 157 66 157 C66 157.66 66 158.32 66 159 C65.01 159 64.02 159 63 159 C62.67 159.66 62.34 160.32 62 161 C61.01 160.67 60.02 160.34 59 160 C58.67 159.34 58.34 158.68 58 158 C56.68 157.67 55.36 157.34 54 157 C52.35 159.97 50.7 162.94 49 166 C46.70839681 166.02692484 44.41670454 166.04636124 42.125 166.0625 C40.84882813 166.07410156 39.57265625 166.08570313 38.2578125 166.09765625 C35 166 35 166 33 165 C32.26924352 162.6859378 31.59861742 160.35171131 31 158 C28.07582485 157.75349371 28.07582485 157.75349371 26.125 159.0625 C23.17299511 160.3648551 22.03439908 160.12907873 19 159 C15.75283215 156.58922387 12.85609658 153.85609658 10 151 C7.22234328 150.67443565 7.22234328 150.67443565 3.9296875 150.69702148 C2.01760498 150.67205849 2.01760498 150.67205849 0.06689453 150.64659119 C-1.33040326 150.63802959 -2.72770145 150.62953199 -4.125 150.62109375 C-5.55225773 150.60492414 -6.97950435 150.58774471 -8.40673828 150.56959534 C-12.16734689 150.52385616 -15.92797023 150.4890791 -19.6887207 150.45739746 C-25.70876031 150.40557183 -31.72863643 150.34043774 -37.74847412 150.26918221 C-39.8545996 150.24631524 -41.96070428 150.23006531 -44.06689453 150.21446228 C-45.34161621 150.20097244 -46.61633789 150.1874826 -47.9296875 150.17358398 C-49.05616699 150.16407211 -50.18264648 150.15456024 -51.34326172 150.14476013 C-54 150 -54 150 -56 149 C-57.0024475 145.9926575 -57.13037349 143.98772959 -57.14044189 140.84474182 C-57.14615204 139.7778009 -57.15186218 138.71085999 -57.15774536 137.61158752 C-57.15886322 136.44111374 -57.15998108 135.27063995 -57.16113281 134.06469727 C-57.16609772 132.8319809 -57.17106262 131.59926453 -57.17617798 130.32919312 C-57.18828678 126.94696281 -57.19574448 123.56479433 -57.20018864 120.18254972 C-57.20312043 118.06969959 -57.20722539 115.95685489 -57.21169281 113.84400749 C-57.22536331 107.23388239 -57.23503281 100.62376967 -57.2388947 94.0136314 C-57.24337801 86.38186521 -57.26094026 78.75027789 -57.2898953 71.1185661 C-57.31150024 65.21954975 -57.3215983 59.32058378 -57.32293582 53.42152828 C-57.32398448 49.89798444 -57.32990527 46.37460885 -57.34775543 42.85110664 C-57.36727267 38.92224453 -57.36295188 34.99360677 -57.35644531 31.06469727 C-57.3656601 29.89624771 -57.37487488 28.72779816 -57.3843689 27.52394104 C-57.37879974 26.4541803 -57.37323059 25.38441956 -57.36749268 24.28224182 C-57.36895924 23.35328378 -57.3704258 22.42432573 -57.3719368 21.46721745 C-56.92804556 18.52269513 -56.03278245 17.14735315 -54 15 C-51.82348633 14.45410156 -51.82348633 14.45410156 -49.33203125 14.390625 C-47.99301758 14.34228516 -47.99301758 14.34228516 -46.62695312 14.29296875 C-45.69818359 14.27878906 -44.76941406 14.26460937 -43.8125 14.25 C-42.87212891 14.22035156 -41.93175781 14.19070312 -40.96289062 14.16015625 C-38.64184084 14.08946438 -36.32179465 14.03676835 -34 14 C-33.34 12.68 -32.68 11.36 -32 10 C-27.05 10 -22.1 10 -17 10 C-16.38125 8.3603125 -16.38125 8.3603125 -15.75 6.6875 C-13.00816915 -0.57835174 -6.9664581 -1.19683073 0 0 Z M-7 8 C-7.33 9.32 -7.66 10.64 -8 12 C-6.68 12.33 -5.36 12.66 -4 13 C-3.34 12.01 -2.68 11.02 -2 10 C-2.66 9.34 -3.32 8.68 -4 8 C-4.99 8 -5.98 8 -7 8 Z M31.1875 121.1875 C30.795625 121.785625 30.40375 122.38375 30 123 C30.33 123.66 30.66 124.32 31 125 C30.34 125 29.68 125 29 125 C27.81304026 128.95653245 27.8989237 131.48381778 29.5625 135.1875 C31.7361128 139.05416495 33.65513254 140.6883419 38 142 C42.57048389 142.63792973 45.83835072 142.68183762 49.875 140.3125 C53.25859964 136.63034745 55.1621416 134.00269846 55.3125 128.9375 C55.04459289 125.56187043 54.83684154 123.75526232 53 121 C52.34 121 51.68 121 51 121 C50.67 120.01 50.34 119.02 50 118 C43.76102313 113.25837758 35.7633223 115.66495584 31.1875 121.1875 Z " fill="#30302E" transform="translate(122,35)"/>
<path d="M0 0 C4.62 0 9.24 0 14 0 C14 2.64 14 5.28 14 8 C15.43410368 8.24954005 16.87260072 8.47392642 18.3125 8.6875 C19.11300781 8.81511719 19.91351563 8.94273437 20.73828125 9.07421875 C23.09649679 9.22742807 23.09649679 9.22742807 24.79296875 7.51953125 C25.19128906 7.01808594 25.58960938 6.51664063 26 6 C29.51855159 7.40742064 30.38612834 8.66466523 32 12 C32.99 12.33 33.98 12.66 35 13 C34.53078003 15.41313129 34.0498364 17.80619179 33.4375 20.1875 C32.92178649 22.01326836 32.92178649 22.01326836 33 24 C33.66 24 34.32 24 35 24 C35.495 24.99 35.495 24.99 36 26 C38.32156597 26.40729228 40.6568787 26.74438677 43 27 C43.22126178 29.45779976 43.42750395 31.91527648 43.625 34.375 C43.68945312 35.07367188 43.75390625 35.77234375 43.8203125 36.4921875 C43.96119739 38.32369111 43.98761659 40.16312748 44 42 C41.4345406 44.5654594 39.52313332 44.54046087 36 45 C35.21717352 46.79199472 35.21717352 46.79199472 35 49 C35.7425 49.99 35.7425 49.99 36.5 51 C38 53 38 53 37.9375 54.875 C36.61904794 57.86349134 34.95701905 60.39064126 33 63 C32.34 63 31.68 63 31 63 C31 63.66 31 64.32 31 65 C26.48279689 65.36625971 26.48279689 65.36625971 24.1875 63.625 C23 62 23 62 23 60 C18.66770285 60.8604139 18.66770285 60.8604139 15 63 C14.63239269 65.32817964 14.29758419 67.6618385 14 70 C9.38 70 4.76 70 0 70 C-0.33 67.36 -0.66 64.72 -1 62 C-4.98677336 61.2693461 -4.98677336 61.2693461 -9 61 C-11.02977977 62.27219734 -11.02977977 62.27219734 -12 64 C-16.29238623 62.34908222 -18.8793915 59.26245434 -22 56 C-21.690625 55.236875 -21.38125 54.47375 -21.0625 53.6875 C-19.40936932 49.50605182 -18.93713192 47.36956878 -20 43 C-22.64 43 -25.28 43 -28 43 C-28 38.05 -28 33.1 -28 28 C-24.535 27.505 -24.535 27.505 -21 27 C-20.01 24.36 -19.02 21.72 -18 19 C-19.32 18.34 -20.64 17.68 -22 17 C-21.4409112 13.75728494 -20.5867822 12.06942576 -18 10 C-17.34 10 -16.68 10 -16 10 C-15.67 9.01 -15.34 8.02 -15 7 C-13.68 7 -12.36 7 -11 7 C-10.01 8.485 -10.01 8.485 -9 10 C-5.97580475 9.41196203 -2.98241547 8.77321882 0 8 C0 5.36 0 2.72 0 0 Z M-3.8125 27.1875 C-4.204375 27.785625 -4.59625 28.38375 -5 29 C-4.67 29.66 -4.34 30.32 -4 31 C-4.66 31 -5.32 31 -6 31 C-7.18695974 34.95653245 -7.1010763 37.48381778 -5.4375 41.1875 C-3.2638872 45.05416495 -1.34486746 46.6883419 3 48 C7.57048389 48.63792973 10.83835072 48.68183762 14.875 46.3125 C18.25859964 42.63034745 20.1621416 40.00269846 20.3125 34.9375 C20.04459289 31.56187043 19.83684154 29.75526232 18 27 C17.34 27 16.68 27 16 27 C15.67 26.01 15.34 25.02 15 24 C8.76102313 19.25837758 0.7633223 21.66495584 -3.8125 27.1875 Z " fill="#31312F" transform="translate(157,129)"/>
<path d="M0 0 C4.66463827 3.30411878 5.11883785 5.35651356 7 11 C12.28 11 17.56 11 23 11 C23 12.32 23 13.64 23 15 C23.59014893 14.99476318 24.18029785 14.98952637 24.78833008 14.98413086 C27.46304255 14.96333953 30.13773801 14.95033299 32.8125 14.9375 C33.74126953 14.92912109 34.67003906 14.92074219 35.62695312 14.91210938 C36.51962891 14.90888672 37.41230469 14.90566406 38.33203125 14.90234375 C39.56530151 14.89448853 39.56530151 14.89448853 40.82348633 14.88647461 C43 15 43 15 46 16 C46 40.42 46 64.84 46 90 C44.35 90.33 42.7 90.66 41 91 C39 89 39 89 38.75949097 86.177948 C38.76393219 84.97437653 38.76837341 83.77080505 38.77294922 82.53076172 C38.77265717 81.86722687 38.77236511 81.20369202 38.77206421 80.52005005 C38.77345944 78.32313028 38.78902933 76.12654814 38.8046875 73.9296875 C38.80841695 72.40797104 38.81126424 70.88625219 38.81326294 69.36453247 C38.82090477 65.35643908 38.84055787 61.3484903 38.8626709 57.3404541 C38.88311756 53.25172888 38.89226212 49.16298034 38.90234375 45.07421875 C38.92380335 37.04940536 38.95898986 29.02473732 39 21 C33.72 21 28.44 21 23 21 C23.495 22.485 23.495 22.485 24 24 C23.06894211 24.98529428 22.12987519 25.96302444 21.1875 26.9375 C20.66542969 27.48277344 20.14335937 28.02804688 19.60546875 28.58984375 C16.12802561 31.64424028 11.7844178 31.26259942 7.40234375 31.421875 C6.65344376 31.44977112 5.90454376 31.47766724 5.13294983 31.50640869 C3.54518797 31.56278711 1.95732611 31.6164068 0.36938477 31.66748047 C-2.02997829 31.74889646 -4.42771016 31.85273956 -6.82617188 31.95703125 C-23.79239708 32.58193276 -23.79239708 32.58193276 -30 29 C-31.2043457 27.25415039 -31.2043457 27.25415039 -32.25 25.3125 C-33.1575 24.219375 -34.065 23.12625 -35 22 C-39.62 22 -44.24 22 -49 22 C-49 61.93 -49 101.86 -49 143 C-19.795 143.495 -19.795 143.495 10 144 C10.66 144.66 11.32 145.32 12 146 C13.4606285 143.35261084 14 142.10551666 14 139 C12.700625 138.855625 11.40125 138.71125 10.0625 138.5625 C6.125 138.125 6.125 138.125 5 137 C4.54234333 134.01110641 4.29679049 131.01030352 4 128 C-2.93 127.505 -2.93 127.505 -10 127 C-10.33 125.35 -10.66 123.7 -11 122 C-9 120 -9 120 -6.84521484 119.77294922 C-5.54124756 119.78865967 -5.54124756 119.78865967 -4.2109375 119.8046875 C-3.26992187 119.81113281 -2.32890625 119.81757813 -1.359375 119.82421875 C-0.37453125 119.84097656 0.6103125 119.85773438 1.625 119.875 C2.61757812 119.88402344 3.61015625 119.89304687 4.6328125 119.90234375 C7.08878134 119.92595884 9.54427168 119.95889201 12 120 C12.66 118.02 13.32 116.04 14 114 C12.515 113.01 12.515 113.01 11 112 C10.5 109.6875 10.5 109.6875 11 107 C13.1875 104.4375 13.1875 104.4375 16 102 C16.86625 101.236875 17.7325 100.47375 18.625 99.6875 C21 98 21 98 24 98 C26.1875 100 26.1875 100 28 102 C29.65 101.34 31.3 100.68 33 100 C33 98.02 33 96.04 33 94 C38.97802937 91.79072828 43.73960391 92.06786859 50 93 C50 95.31 50 97.62 50 100 C52.80764728 100.77426109 52.80764728 100.77426109 56 101 C57.36161311 100.03886134 58.69855198 99.04115841 60 98 C63.40112398 98.21257025 65.41377075 99.89868873 68 102 C69.0828125 102.680625 69.0828125 102.680625 70.1875 103.375 C72 105 72 105 73 107.1875 C73 111.38458203 71.0666497 114.4254943 69 118 C68.34 117.34 67.68 116.68 67 116 C67.38892511 113.74423439 68.10155757 111.71708963 68.875 109.5625 C69.29144905 106.74438394 69.29144905 106.74438394 66.8125 104.1875 C64.06760656 101.59070626 64.06760656 101.59070626 60 102 C59.34 102.66 58.68 103.32 58 104 C51.91304348 103.45652174 51.91304348 103.45652174 49 102 C49 99.36 49 96.72 49 94 C44.38 94 39.76 94 35 94 C35 96.64 35 99.28 35 102 C29.65745311 105.03553801 29.65745311 105.03553801 26.6875 104.875 C25 104 25 104 24 101 C19.73794894 101.47356123 17.71306207 103.84698192 15 107 C14.13880866 109.17346568 14.13880866 109.17346568 14 111 C15.485 111.99 15.485 111.99 17 113 C16.44271087 116.34373475 15.64826111 119.03312999 14 122 C11.69 122 9.38 122 7 122 C7 126.95 7 131.9 7 137 C9.64 137 12.28 137 15 137 C16.1875 140.25 16.1875 140.25 17 144 C15.625 146.4375 15.625 146.4375 14 148 C15.55500981 151.81684226 18.03595495 154.19195732 21 157 C21.556875 156.690625 22.11375 156.38125 22.6875 156.0625 C26.42242459 154.34645356 28.83632391 153.61210797 32.8125 154.9375 C33.534375 155.288125 34.25625 155.63875 35 156 C35 158.64 35 161.28 35 164 C39.62 164 44.24 164 49 164 C49 161.69 49 159.38 49 157 C51.04633004 154.65050996 52.40905746 154.12121898 55.4375 153.5 C59.08999967 154.21268286 60.60420464 156.26194816 63 159 C62.67 159.66 62.34 160.32 62 161 C61.01 160.67 60.02 160.34 59 160 C58.67 159.34 58.34 158.68 58 158 C56.68 157.67 55.36 157.34 54 157 C52.35 159.97 50.7 162.94 49 166 C46.70839681 166.02692484 44.41670454 166.04636124 42.125 166.0625 C40.84882813 166.07410156 39.57265625 166.08570313 38.2578125 166.09765625 C35 166 35 166 33 165 C32.26924352 162.6859378 31.59861742 160.35171131 31 158 C28.07582485 157.75349371 28.07582485 157.75349371 26.125 159.0625 C23.17299511 160.3648551 22.03439908 160.12907873 19 159 C15.75283215 156.58922387 12.85609658 153.85609658 10 151 C7.22234328 150.67443565 7.22234328 150.67443565 3.9296875 150.69702148 C2.01760498 150.67205849 2.01760498 150.67205849 0.06689453 150.64659119 C-1.33040326 150.63802959 -2.72770145 150.62953199 -4.125 150.62109375 C-5.55225773 150.60492414 -6.97950435 150.58774471 -8.40673828 150.56959534 C-12.16734689 150.52385616 -15.92797023 150.4890791 -19.6887207 150.45739746 C-25.70876031 150.40557183 -31.72863643 150.34043774 -37.74847412 150.26918221 C-39.8545996 150.24631524 -41.96070428 150.23006531 -44.06689453 150.21446228 C-45.34161621 150.20097244 -46.61633789 150.1874826 -47.9296875 150.17358398 C-49.05616699 150.16407211 -50.18264648 150.15456024 -51.34326172 150.14476013 C-54 150 -54 150 -56 149 C-57.0024475 145.9926575 -57.13037349 143.98772959 -57.14044189 140.84474182 C-57.14615204 139.7778009 -57.15186218 138.71085999 -57.15774536 137.61158752 C-57.15886322 136.44111374 -57.15998108 135.27063995 -57.16113281 134.06469727 C-57.16609772 132.8319809 -57.17106262 131.59926453 -57.17617798 130.32919312 C-57.18828678 126.94696281 -57.19574448 123.56479433 -57.20018864 120.18254972 C-57.20312043 118.06969959 -57.20722539 115.95685489 -57.21169281 113.84400749 C-57.22536331 107.23388239 -57.23503281 100.62376967 -57.2388947 94.0136314 C-57.24337801 86.38186521 -57.26094026 78.75027789 -57.2898953 71.1185661 C-57.31150024 65.21954975 -57.3215983 59.32058378 -57.32293582 53.42152828 C-57.32398448 49.89798444 -57.32990527 46.37460885 -57.34775543 42.85110664 C-57.36727267 38.92224453 -57.36295188 34.99360677 -57.35644531 31.06469727 C-57.3656601 29.89624771 -57.37487488 28.72779816 -57.3843689 27.52394104 C-57.37879974 26.4541803 -57.37323059 25.38441956 -57.36749268 24.28224182 C-57.36895924 23.35328378 -57.3704258 22.42432573 -57.3719368 21.46721745 C-56.92804556 18.52269513 -56.03278245 17.14735315 -54 15 C-51.82348633 14.45410156 -51.82348633 14.45410156 -49.33203125 14.390625 C-47.99301758 14.34228516 -47.99301758 14.34228516 -46.62695312 14.29296875 C-45.69818359 14.27878906 -44.76941406 14.26460937 -43.8125 14.25 C-42.87212891 14.22035156 -41.93175781 14.19070312 -40.96289062 14.16015625 C-38.64184084 14.08946438 -36.32179465 14.03676835 -34 14 C-33.34 12.68 -32.68 11.36 -32 10 C-27.05 10 -22.1 10 -17 10 C-16.38125 8.3603125 -16.38125 8.3603125 -15.75 6.6875 C-13.00816915 -0.57835174 -6.9664581 -1.19683073 0 0 Z M-14 7 C-14 8.65 -14 10.3 -14 12 C-19.94 12 -25.88 12 -32 12 C-32 13.32 -32 14.64 -32 16 C-32.93851807 15.98428955 -32.93851807 15.98428955 -33.89599609 15.96826172 C-36.7222901 15.92676809 -39.54852011 15.90069527 -42.375 15.875 C-43.35984375 15.85824219 -44.3446875 15.84148438 -45.359375 15.82421875 C-46.30039063 15.81777344 -47.24140625 15.81132813 -48.2109375 15.8046875 C-49.08024902 15.79421387 -49.94956055 15.78374023 -50.84521484 15.77294922 C-53.21345939 15.79404891 -53.21345939 15.79404891 -55 18 C-55.30442128 20.3522144 -55.30442128 20.3522144 -55.25396729 23.12438965 C-55.25960693 24.20967453 -55.26524658 25.29495941 -55.27105713 26.41313171 C-55.26700867 27.60904434 -55.26296021 28.80495697 -55.25878906 30.03710938 C-55.2622937 31.29239944 -55.26579834 32.54768951 -55.26940918 33.84101868 C-55.2785456 37.28931074 -55.27498383 40.73748345 -55.26865101 44.18577766 C-55.26359747 47.78966729 -55.26828066 51.39354651 -55.27142334 54.99743652 C-55.27506488 61.05023031 -55.27025899 67.10297533 -55.26074219 73.15576172 C-55.24985725 80.15970247 -55.2533827 87.1635268 -55.264395 94.16746473 C-55.27346255 100.1742908 -55.27475577 106.18108176 -55.26951766 112.18791246 C-55.26639502 115.77842652 -55.26599664 119.3688858 -55.27259064 122.95939636 C-55.27942527 126.96063159 -55.26996007 130.9616652 -55.25878906 134.96289062 C-55.26283752 136.15880325 -55.26688599 137.35471588 -55.27105713 138.58686829 C-55.26541748 139.67215317 -55.25977783 140.75743805 -55.25396729 141.87561035 C-55.25321323 142.82245949 -55.25245918 143.76930862 -55.25168228 144.74485016 C-55.21513626 147.20107395 -55.21513626 147.20107395 -53 149 C-50.24762431 149.29349318 -50.24762431 149.29349318 -46.98974609 149.22705078 C-45.72858978 149.22689972 -44.46743347 149.22674866 -43.1680603 149.22659302 C-41.78651778 149.21637898 -40.40497685 149.20594697 -39.0234375 149.1953125 C-37.61382243 149.19158288 -36.20420477 149.18873567 -34.79458618 149.18673706 C-31.08240618 149.17909655 -27.37038239 149.15944461 -23.65826416 149.1373291 C-19.87115594 149.11687959 -16.0840225 149.10773727 -12.296875 149.09765625 C-4.86451207 149.076199 2.56772208 149.04205816 10 149 C10 148.01 10 147.02 10 146 C-9.8 146 -29.6 146 -50 146 C-50 104.75 -50 63.5 -50 21 C-43.73 20.67 -37.46 20.34 -31 20 C-30.67 21.65 -30.34 23.3 -30 25 C-29.19137712 27.42400081 -29.19137712 27.42400081 -27 29 C-23.74738547 29.62273683 -20.52607184 29.58394078 -17.22265625 29.56640625 C-15.77831459 29.57570412 -15.77831459 29.57570412 -14.30479431 29.58518982 C-12.26806653 29.59229477 -10.23128075 29.58910224 -8.19458008 29.57641602 C-5.07719976 29.56256531 -1.96282902 29.59659272 1.15429688 29.63476562 C3.13281324 29.63571695 5.11133336 29.63385731 7.08984375 29.62890625 C8.02223373 29.64216446 8.95462372 29.65542267 9.91526794 29.66908264 C15.26727867 29.64625936 15.26727867 29.64625936 19.55688477 26.64819336 C21.09324423 24.01406089 21.09324423 24.01406089 22 21 C27.94 21 33.88 21 40 21 C40.33 43.44 40.66 65.88 41 89 C41.99 89 42.98 89 44 89 C44.04627979 79.77730794 44.08184694 70.55465566 44.10362434 61.33187294 C44.11407483 57.04965752 44.12825697 52.76752136 44.15087891 48.48535156 C44.17256238 44.35511874 44.18455909 40.22496231 44.18975449 36.09467697 C44.19345835 34.51656262 44.2006908 32.93845259 44.21146011 31.36037064 C44.22591549 29.15503049 44.22798048 26.95000858 44.22705078 24.74462891 C44.231492 23.48776276 44.23593323 22.23089661 44.24050903 20.9359436 C44.30867532 17.87733258 44.30867532 17.87733258 42 16 C39.86747907 15.72285104 39.86747907 15.72285104 37.4296875 15.8046875 C36.08583984 15.81435547 36.08583984 15.81435547 34.71484375 15.82421875 C33.30912109 15.84935547 33.30912109 15.84935547 31.875 15.875 C30.45767578 15.88853516 30.45767578 15.88853516 29.01171875 15.90234375 C26.67422708 15.92595478 24.33723877 15.95888484 22 16 C22 14.68 22 13.36 22 12 C16.39 12 10.78 12 5 12 C4.505 9.525 4.505 9.525 4 7 C1.37342771 2.71697856 1.37342771 2.71697856 -2.93359375 0.41015625 C-8.8301881 -0.04685768 -11.03222879 2.08462893 -14 7 Z " fill="#050505" transform="translate(122,35)"/>
<path d="M0 0 C0 0.99 0 1.98 0 3 C0.02320313 3.72316406 0.04640625 4.44632813 0.0703125 5.19140625 C0.08835938 5.97386719 0.10640625 6.75632812 0.125 7.5625 C0.14820313 8.34753906 0.17140625 9.13257813 0.1953125 9.94140625 C0 12 0 12 -2 14 C-6.55555556 13.44444444 -6.55555556 13.44444444 -8 12 C-8.04092937 9.66702567 -8.04241723 7.33294775 -8 5 C-11.22404978 6.66954819 -11.22404978 6.66954819 -11.6875 9.625 C-11.790625 10.40875 -11.89375 11.1925 -12 12 C-15.94647618 12.98844951 -19.27392964 12.96191905 -23.3125 12.5625 C-24.38113281 12.46066406 -25.44976562 12.35882813 -26.55078125 12.25390625 C-27.35902344 12.17011719 -28.16726562 12.08632813 -29 12 C-29.144375 12.78375 -29.28875 13.5675 -29.4375 14.375 C-30 17 -30 17 -31 19 C-36.94 19.33 -42.88 19.66 -49 20 C-49 61.25 -49 102.5 -49 145 C-29.2 145 -9.4 145 11 145 C11 145.99 11 146.98 11 148 C2.82037612 148.04628728 -5.35919327 148.08185072 -13.53891563 148.10362434 C-17.33686312 148.11407321 -21.13472118 148.12825236 -24.93261719 148.15087891 C-28.59601346 148.17256821 -32.25932357 148.18456031 -35.92277908 148.18975449 C-37.32226544 148.19345731 -38.72174695 148.20068777 -40.12119675 148.21146011 C-42.07733331 148.22592225 -44.03355609 148.22681647 -45.98974609 148.22705078 C-47.66186661 148.23371262 -47.66186661 148.23371262 -49.36776733 148.24050903 C-52 148 -52 148 -54 146 C-54.25168228 143.74485016 -54.25168228 143.74485016 -54.25396729 140.87561035 C-54.25960693 139.79032547 -54.26524658 138.70504059 -54.27105713 137.58686829 C-54.26700867 136.39095566 -54.26296021 135.19504303 -54.25878906 133.96289062 C-54.2622937 132.70760056 -54.26579834 131.45231049 -54.26940918 130.15898132 C-54.2785456 126.71068926 -54.27498383 123.26251655 -54.26865101 119.81422234 C-54.26359747 116.21033271 -54.26828066 112.60645349 -54.27142334 109.00256348 C-54.27506488 102.94976969 -54.27025899 96.89702467 -54.26074219 90.84423828 C-54.24985725 83.84029753 -54.2533827 76.8364732 -54.264395 69.83253527 C-54.27346255 63.8257092 -54.27475577 57.81891824 -54.26951766 51.81208754 C-54.26639502 48.22157348 -54.26599664 44.6311142 -54.27259064 41.04060364 C-54.27942527 37.03936841 -54.26996007 33.0383348 -54.25878906 29.03710938 C-54.26283752 27.84119675 -54.26688599 26.64528412 -54.27105713 25.41313171 C-54.26541748 24.32784683 -54.25977783 23.24256195 -54.25396729 22.12438965 C-54.25321323 21.17754051 -54.25245918 20.23069138 -54.25168228 19.25514984 C-54 17 -54 17 -52 15 C-49.84521484 14.77294922 -49.84521484 14.77294922 -47.2109375 14.8046875 C-46.26992187 14.81113281 -45.32890625 14.81757812 -44.359375 14.82421875 C-43.37453125 14.84097656 -42.3896875 14.85773437 -41.375 14.875 C-40.38242188 14.88402344 -39.38984375 14.89304687 -38.3671875 14.90234375 C-35.91121866 14.92595884 -33.45572832 14.95889201 -31 15 C-31 13.68 -31 12.36 -31 11 C-25.06 11 -19.12 11 -13 11 C-12.67 8.69 -12.34 6.38 -12 4 C-8.82369593 -0.95503435 -5.39263415 -0.35950894 0 0 Z M-6 7 C-6.33 8.32 -6.66 9.64 -7 11 C-5.68 11.33 -4.36 11.66 -3 12 C-2.34 11.01 -1.68 10.02 -1 9 C-1.66 8.34 -2.32 7.68 -3 7 C-3.99 7 -4.98 7 -6 7 Z " fill="#252525" transform="translate(121,36)"/>
<path d="M0 0 C1.26650391 0.00966797 1.26650391 0.00966797 2.55859375 0.01953125 C3.43128906 0.03628906 4.30398437 0.05304688 5.203125 0.0703125 C6.53537109 0.08384766 6.53537109 0.08384766 7.89453125 0.09765625 C10.08100558 0.12116673 12.26692594 0.15402751 14.453125 0.1953125 C14.783125 0.8553125 15.113125 1.5153125 15.453125 2.1953125 C17.433125 1.8653125 19.413125 1.5353125 21.453125 1.1953125 C22.078125 4.0078125 22.078125 4.0078125 22.453125 7.1953125 C21.463125 8.6803125 21.463125 8.6803125 20.453125 10.1953125 C20.95662392 12.04147522 21.46507048 13.88649614 22.00390625 15.72265625 C22.87690103 20.52792316 22.04654887 25.38376764 21.453125 30.1953125 C18.34168933 31.23245772 15.95844404 31.39563111 12.69140625 31.51171875 C11.57314453 31.55361328 10.45488281 31.59550781 9.30273438 31.63867188 C8.13548828 31.67798828 6.96824219 31.71730469 5.765625 31.7578125 C4.58677734 31.80099609 3.40792969 31.84417969 2.19335938 31.88867188 C-0.71993383 31.99482426 -3.63331257 32.09687492 -6.546875 32.1953125 C-10.53940145 26.34508095 -9.68964534 20.66145448 -9.234375 13.8203125 C-9.17314453 12.70269531 -9.11191406 11.58507812 -9.04882812 10.43359375 C-8.89620091 7.68630386 -8.72844583 4.94081605 -8.546875 2.1953125 C-5.55561181 0.47325062 -3.44001787 -0.04648673 0 0 Z M-2.546875 7.1953125 C-2.546875 7.8553125 -2.546875 8.5153125 -2.546875 9.1953125 C0.35912761 10.45196228 2.24917084 11.1953125 5.453125 11.1953125 C5.783125 11.8553125 6.113125 12.5153125 6.453125 13.1953125 C8.103125 11.2153125 9.753125 9.2353125 11.453125 7.1953125 C6.833125 7.1953125 2.213125 7.1953125 -2.546875 7.1953125 Z M11.453125 17.1953125 C10.8034375 18.1853125 10.8034375 18.1853125 10.140625 19.1953125 C9.58375 19.8553125 9.026875 20.5153125 8.453125 21.1953125 C4.765625 21.4453125 4.765625 21.4453125 1.453125 21.1953125 C1.123125 20.2053125 0.793125 19.2153125 0.453125 18.1953125 C-0.536875 18.1953125 -1.526875 18.1953125 -2.546875 18.1953125 C-2.546875 20.1753125 -2.546875 22.1553125 -2.546875 24.1953125 C0.8694269 25.23505656 4.01738512 25.32906125 7.578125 25.3203125 C9.15980469 25.32417969 9.15980469 25.32417969 10.7734375 25.328125 C13.42539154 25.3768415 13.42539154 25.3768415 15.453125 24.1953125 C15.453125 21.8853125 15.453125 19.5753125 15.453125 17.1953125 C14.133125 17.1953125 12.813125 17.1953125 11.453125 17.1953125 Z " fill="#040404" transform="translate(87.546875,142.8046875)"/>
<path d="M0 0 C1.17175781 0.07057617 1.17175781 0.07057617 2.3671875 0.14257812 C3.57761719 0.23249023 3.57761719 0.23249023 4.8125 0.32421875 C5.61945313 0.37255859 6.42640625 0.42089844 7.2578125 0.47070312 C10.9105269 0.70879259 14.26783348 1.07606843 17.8125 2.01171875 C18.699375 2.15609375 19.58625 2.30046875 20.5 2.44921875 C21.263125 2.63484375 22.02625 2.82046875 22.8125 3.01171875 C23.1425 3.67171875 23.4725 4.33171875 23.8125 5.01171875 C23.296875 5.71296875 22.78125 6.41421875 22.25 7.13671875 C20.4919623 10.65279415 21.20101734 12.11965161 22.3203125 15.75390625 C23.20817471 19.82679798 22.70369373 23.96541172 21.8125 28.01171875 C21.1525 29.00171875 20.4925 29.99171875 19.8125 31.01171875 C17.23046875 31.3840332 17.23046875 31.3840332 14 31.375 C12.26363281 31.3740332 12.26363281 31.3740332 10.4921875 31.37304688 C9.27789062 31.35693359 8.06359375 31.34082031 6.8125 31.32421875 C5.59820312 31.32744141 4.38390625 31.33066406 3.1328125 31.33398438 C-5.92068452 31.27853423 -5.92068452 31.27853423 -8.1875 29.01171875 C-8.41455078 26.30615234 -8.41455078 26.30615234 -8.3828125 22.91015625 C-8.37636719 21.6984375 -8.36992188 20.48671875 -8.36328125 19.23828125 C-8.34652344 17.96726562 -8.32976562 16.69625 -8.3125 15.38671875 C-8.29896484 13.46859375 -8.29896484 13.46859375 -8.28515625 11.51171875 C-8.26152303 8.34486708 -8.22857629 5.17838451 -8.1875 2.01171875 C-5.27393516 0.33682818 -3.3474559 -0.21759988 0 0 Z M-2.1875 7.01171875 C-2.1875 8.33171875 -2.1875 9.65171875 -2.1875 11.01171875 C-1.07375 10.94984375 0.04 10.88796875 1.1875 10.82421875 C2.981875 10.91703125 2.981875 10.91703125 4.8125 11.01171875 C5.8025 12.49671875 5.8025 12.49671875 6.8125 14.01171875 C6.8125 13.35171875 6.8125 12.69171875 6.8125 12.01171875 C7.8025 11.68171875 8.7925 11.35171875 9.8125 11.01171875 C10.1425 9.69171875 10.4725 8.37171875 10.8125 7.01171875 C6.5225 7.01171875 2.2325 7.01171875 -2.1875 7.01171875 Z M11.8125 17.01171875 C9.54372465 19.43052804 9.54372465 19.43052804 7.8125 22.01171875 C4.12495243 21.51340151 2.20759338 20.91104232 -0.1875 18.01171875 C-1.76023568 20.85420415 -1.76023568 20.85420415 -2.1875 24.01171875 C0.65010526 25.43052138 3.08932975 25.14376595 6.25 25.13671875 C7.40371094 25.13929687 8.55742188 25.141875 9.74609375 25.14453125 C12.85375667 25.15067797 12.85375667 25.15067797 15.8125 24.01171875 C15.8125 21.70171875 15.8125 19.39171875 15.8125 17.01171875 C14.4925 17.01171875 13.1725 17.01171875 11.8125 17.01171875 Z " fill="#030303" transform="translate(87.1875,68.98828125)"/>
<path d="M0 0 C0.92619141 -0.00128906 1.85238281 -0.00257812 2.80664062 -0.00390625 C4.2694043 0.00189453 4.2694043 0.00189453 5.76171875 0.0078125 C6.72529297 0.00394531 7.68886719 0.00007813 8.68164062 -0.00390625 C9.61169922 -0.00261719 10.54175781 -0.00132813 11.5 0 C12.77870972 0.00169189 12.77870972 0.00169189 14.08325195 0.00341797 C16.34890007 0.12732608 18.25921622 0.57794206 20.44921875 1.1328125 C21.76921875 1.1328125 23.08921875 1.1328125 24.44921875 1.1328125 C26.44921875 4.1328125 26.44921875 4.1328125 26.44921875 7.1328125 C25.45921875 7.1328125 24.46921875 7.1328125 23.44921875 7.1328125 C23.69285156 8.13441406 23.69285156 8.13441406 23.94140625 9.15625 C24.55111271 12.73006784 24.58136814 16.13307347 24.57421875 19.7578125 C24.57808594 21.72621094 24.57808594 21.72621094 24.58203125 23.734375 C24.44921875 27.1328125 24.44921875 27.1328125 23.44921875 30.1328125 C19.06571152 31.79870195 14.13323703 31.35627112 9.51171875 31.3828125 C8.61775391 31.4034375 7.72378906 31.4240625 6.80273438 31.4453125 C5.93455078 31.45046875 5.06636719 31.455625 4.171875 31.4609375 C3.38562744 31.4702832 2.59937988 31.47962891 1.78930664 31.48925781 C-1.34727592 31.01148937 -3.10865414 30.16805165 -5.55078125 28.1328125 C-6.13427734 25.32958984 -6.13427734 25.32958984 -6.07421875 21.96875 C-6.06261719 20.76476562 -6.05101563 19.56078125 -6.0390625 18.3203125 C-6.00167969 17.0621875 -5.96429688 15.8040625 -5.92578125 14.5078125 C-5.90451172 12.60902344 -5.90451172 12.60902344 -5.8828125 10.671875 C-5.71117696 0.00758672 -5.71117696 0.00758672 0 0 Z M0.44921875 6.1328125 C0.77921875 7.1228125 1.10921875 8.1128125 1.44921875 9.1328125 C3.8254722 10.31672473 3.8254722 10.31672473 6.44921875 11.1328125 C7.43921875 11.4628125 8.42921875 11.7928125 9.44921875 12.1328125 C11.69921875 10.96614583 11.69921875 10.96614583 13.44921875 9.1328125 C13.44921875 8.1428125 13.44921875 7.1528125 13.44921875 6.1328125 C9.15921875 6.1328125 4.86921875 6.1328125 0.44921875 6.1328125 Z M16.44921875 14.1328125 C17.44921875 16.1328125 17.44921875 16.1328125 17.44921875 16.1328125 Z M14.44921875 16.1328125 C14.44921875 16.7928125 14.44921875 17.4528125 14.44921875 18.1328125 C11.81972079 19.85209963 10.57730928 20.14326887 7.38671875 19.8828125 C4.44921875 19.1328125 4.44921875 19.1328125 1.44921875 17.1328125 C1.11921875 19.4428125 0.78921875 21.7528125 0.44921875 24.1328125 C6.38921875 24.1328125 12.32921875 24.1328125 18.44921875 24.1328125 C18.44921875 21.4928125 18.44921875 18.8528125 18.44921875 16.1328125 C17.12921875 16.1328125 15.80921875 16.1328125 14.44921875 16.1328125 Z " fill="#141414" transform="translate(84.55078125,106.8671875)"/>
<path d="M0 0 C0 0.99 0 1.98 0 3 C0.02320313 3.72316406 0.04640625 4.44632813 0.0703125 5.19140625 C0.08835938 5.97386719 0.10640625 6.75632812 0.125 7.5625 C0.14820313 8.34753906 0.17140625 9.13257813 0.1953125 9.94140625 C0 12 0 12 -2 14 C-6.55555556 13.44444444 -6.55555556 13.44444444 -8 12 C-8.04092937 9.66702567 -8.04241723 7.33294775 -8 5 C-11.22404978 6.66954819 -11.22404978 6.66954819 -11.6875 9.625 C-11.790625 10.40875 -11.89375 11.1925 -12 12 C-15.94647618 12.98844951 -19.27392964 12.96191905 -23.3125 12.5625 C-24.38113281 12.46066406 -25.44976562 12.35882813 -26.55078125 12.25390625 C-27.35902344 12.17011719 -28.16726562 12.08632813 -29 12 C-29.144375 12.78375 -29.28875 13.5675 -29.4375 14.375 C-30 17 -30 17 -31 19 C-40.405 19.495 -40.405 19.495 -50 20 C-50 19.01 -50 18.02 -50 17 C-50.66 17.33 -51.32 17.66 -52 18 C-52 60.57 -52 103.14 -52 147 C-52.66 146.67 -53.32 146.34 -54 146 C-54.04667433 129.21503997 -54.08196638 112.43010013 -54.10362434 95.6450901 C-54.11394679 87.85191303 -54.12802555 80.05877623 -54.15087891 72.265625 C-54.17078323 65.47489247 -54.18370939 58.6841891 -54.18817699 51.89342821 C-54.19078941 48.29616016 -54.19694965 44.69897553 -54.21146011 41.10173416 C-54.22750907 37.09073399 -54.2279816 33.07987981 -54.22705078 29.06884766 C-54.23424133 27.86979294 -54.24143188 26.67073822 -54.24884033 25.43534851 C-54.246091 24.34717331 -54.24334167 23.25899811 -54.24050903 22.1378479 C-54.24235262 21.18840113 -54.24419621 20.23895435 -54.24609566 19.26073647 C-54 17 -54 17 -52 15 C-49.84521484 14.77294922 -49.84521484 14.77294922 -47.2109375 14.8046875 C-46.26992187 14.81113281 -45.32890625 14.81757812 -44.359375 14.82421875 C-43.37453125 14.84097656 -42.3896875 14.85773437 -41.375 14.875 C-40.38242188 14.88402344 -39.38984375 14.89304687 -38.3671875 14.90234375 C-35.91121866 14.92595884 -33.45572832 14.95889201 -31 15 C-31 13.68 -31 12.36 -31 11 C-25.06 11 -19.12 11 -13 11 C-12.67 8.69 -12.34 6.38 -12 4 C-8.82369593 -0.95503435 -5.39263415 -0.35950894 0 0 Z M-6 7 C-6.33 8.32 -6.66 9.64 -7 11 C-5.68 11.33 -4.36 11.66 -3 12 C-2.34 11.01 -1.68 10.02 -1 9 C-1.66 8.34 -2.32 7.68 -3 7 C-3.99 7 -4.98 7 -6 7 Z " fill="#212121" transform="translate(121,36)"/>
<path d="M0 0 C2.875 -0.1875 2.875 -0.1875 6 0 C8 3 8 3 8 6 C7.01 6 6.02 6 5 6 C5.24556641 6.99580078 5.24556641 6.99580078 5.49609375 8.01171875 C6.10603857 11.62883337 6.10795513 15.15860708 6.0625 18.8125 C6.05798828 19.50537109 6.05347656 20.19824219 6.04882812 20.91210938 C6.03713156 22.60811068 6.01919924 24.30406703 6 26 C5.67 26 5.34 26 5 26 C4.67 21.38 4.34 16.76 4 12 C3.34 12 2.68 12 2 12 C1.67 15.96 1.34 19.92 1 24 C-5.6 24 -12.2 24 -19 24 C-19 17.4 -19 10.8 -19 4 C-13.06 3.67 -7.12 3.34 -1 3 C-0.67 2.01 -0.34 1.02 0 0 Z M-18 5 C-17.67 5.99 -17.34 6.98 -17 8 C-14.62374655 9.18391223 -14.62374655 9.18391223 -12 10 C-11.01 10.33 -10.02 10.66 -9 11 C-6.75 9.83333333 -6.75 9.83333333 -5 8 C-5 7.01 -5 6.02 -5 5 C-9.29 5 -13.58 5 -18 5 Z M-2 13 C-1 15 -1 15 -1 15 Z M-4 15 C-4 15.66 -4 16.32 -4 17 C-6.62949796 18.71928713 -7.87190947 19.01045637 -11.0625 18.75 C-14 18 -14 18 -17 16 C-17.33 18.31 -17.66 20.62 -18 23 C-12.06 23 -6.12 23 0 23 C0 20.36 0 17.72 0 15 C-1.32 15 -2.64 15 -4 15 Z " fill="#030303" transform="translate(103,108)"/>
<path d="M0 0 C0.74362793 0.01047363 1.48725586 0.02094727 2.25341797 0.03173828 C3.46191406 0.04140625 3.46191406 0.04140625 4.69482422 0.05126953 C5.95746094 0.07640625 5.95746094 0.07640625 7.24560547 0.10205078 C8.51984375 0.11558594 8.51984375 0.11558594 9.81982422 0.12939453 C11.9202043 0.15299431 14.02043991 0.18886595 16.12060547 0.22705078 C16.12060547 1.54705078 16.12060547 2.86705078 16.12060547 4.22705078 C10.84060547 4.22705078 5.56060547 4.22705078 0.12060547 4.22705078 C0.12060547 10.82705078 0.12060547 17.42705078 0.12060547 24.22705078 C6.72060547 24.22705078 13.32060547 24.22705078 20.12060547 24.22705078 C20.12060547 20.26705078 20.12060547 16.30705078 20.12060547 12.22705078 C21.44060547 12.22705078 22.76060547 12.22705078 24.12060547 12.22705078 C24.12060547 16.84705078 24.12060547 21.46705078 24.12060547 26.22705078 C23.46060547 26.22705078 22.80060547 26.22705078 22.12060547 26.22705078 C22.12060547 26.88705078 22.12060547 27.54705078 22.12060547 28.22705078 C18.16233312 28.28490725 14.20416877 28.32059795 10.24560547 28.35205078 C9.11767578 28.36880859 7.98974609 28.38556641 6.82763672 28.40283203 C5.21308594 28.4125 5.21308594 28.4125 3.56591797 28.42236328 C2.07342529 28.43807373 2.07342529 28.43807373 0.55078125 28.45410156 C-1.87939453 28.22705078 -1.87939453 28.22705078 -3.87939453 26.22705078 C-4.13818359 23.82861328 -4.13818359 23.82861328 -4.14501953 20.85205078 C-4.14759766 19.78470703 -4.15017578 18.71736328 -4.15283203 17.61767578 C-4.14123047 15.93931641 -4.14123047 15.93931641 -4.12939453 14.22705078 C-4.13712891 13.10814453 -4.14486328 11.98923828 -4.15283203 10.83642578 C-4.15025391 9.76908203 -4.14767578 8.70173828 -4.14501953 7.60205078 C-4.14276367 6.61978516 -4.14050781 5.63751953 -4.13818359 4.62548828 C-3.81656188 1.6447225 -3.09453556 0.3738527 0 0 Z " fill="#242423" transform="translate(83.87939453125,70.77294921875)"/>
<path d="M0 0 C0.83637497 0.02644089 1.67274994 0.05288177 2.5344696 0.0801239 C5.19430347 0.16758808 7.85272592 0.27683904 10.51171875 0.38671875 C12.31961159 0.45000876 14.12755491 0.51187375 15.93554688 0.57226562 C20.3575259 0.7230805 24.77836771 0.89343339 29.19921875 1.07421875 C29.19921875 1.73421875 29.19921875 2.39421875 29.19921875 3.07421875 C29.85921875 3.40421875 30.51921875 3.73421875 31.19921875 4.07421875 C30.86921875 5.39421875 30.53921875 6.71421875 30.19921875 8.07421875 C16.00921875 8.07421875 1.81921875 8.07421875 -12.80078125 8.07421875 C-13.13078125 6.42421875 -13.46078125 4.77421875 -13.80078125 3.07421875 C-9.2086905 -0.44732324 -5.51306068 -0.25571844 0 0 Z " fill="#252525" transform="translate(124.80078125,79.92578125)"/>
<path d="M0 0 C0.74362793 0.01047363 1.48725586 0.02094727 2.25341797 0.03173828 C3.46191406 0.04140625 3.46191406 0.04140625 4.69482422 0.05126953 C5.95746094 0.07640625 5.95746094 0.07640625 7.24560547 0.10205078 C8.51984375 0.11558594 8.51984375 0.11558594 9.81982422 0.12939453 C11.9202043 0.15299431 14.02043991 0.18886595 16.12060547 0.22705078 C16.12060547 1.21705078 16.12060547 2.20705078 16.12060547 3.22705078 C10.84060547 3.22705078 5.56060547 3.22705078 0.12060547 3.22705078 C0.12060547 10.15705078 0.12060547 17.08705078 0.12060547 24.22705078 C6.72060547 24.22705078 13.32060547 24.22705078 20.12060547 24.22705078 C20.12060547 20.26705078 20.12060547 16.30705078 20.12060547 12.22705078 C21.44060547 12.22705078 22.76060547 12.22705078 24.12060547 12.22705078 C24.61560547 20.14705078 24.61560547 20.14705078 25.12060547 28.22705078 C20.66211327 28.28076755 16.20426158 28.32058849 11.74560547 28.35205078 C10.47458984 28.36880859 9.20357422 28.38556641 7.89404297 28.40283203 C6.68232422 28.40927734 5.47060547 28.41572266 4.22216797 28.42236328 C3.10148926 28.43283691 1.98081055 28.44331055 0.82617188 28.45410156 C-1.87939453 28.22705078 -1.87939453 28.22705078 -3.87939453 26.22705078 C-4.13818359 23.82861328 -4.13818359 23.82861328 -4.14501953 20.85205078 C-4.14759766 19.78470703 -4.15017578 18.71736328 -4.15283203 17.61767578 C-4.14123047 15.93931641 -4.14123047 15.93931641 -4.12939453 14.22705078 C-4.13712891 13.10814453 -4.14486328 11.98923828 -4.15283203 10.83642578 C-4.15025391 9.76908203 -4.14767578 8.70173828 -4.14501953 7.60205078 C-4.14276367 6.61978516 -4.14050781 5.63751953 -4.13818359 4.62548828 C-3.81656188 1.6447225 -3.09453556 0.3738527 0 0 Z " fill="#232322" transform="translate(83.87939453125,144.77294921875)"/>
<path d="M0 0 C0.85835449 0.00718552 1.71670898 0.01437103 2.60107422 0.02177429 C3.48134277 0.02223251 4.36161133 0.02269073 5.26855469 0.02316284 C7.13136135 0.02618648 8.99416546 0.03407609 10.85693359 0.0464325 C13.71444621 0.06466883 16.57163454 0.06694234 19.42919922 0.06669617 C21.2364937 0.07161208 23.04378597 0.07744072 24.85107422 0.08427429 C25.70942871 0.08538712 26.5677832 0.08649994 27.45214844 0.08764648 C33.49394641 0.13617914 33.49394641 0.13617914 35.72607422 1.25224304 C35.76879522 2.91836209 35.76671254 4.58607189 35.72607422 6.25224304 C34.72607422 7.25224304 34.72607422 7.25224304 30.75708008 7.36576843 C28.98501815 7.36560924 27.21295162 7.35991089 25.44091797 7.34989929 C24.51009903 7.34848434 23.57928009 7.3470694 22.62025452 7.34561157 C19.63466231 7.33999476 16.64914392 7.32743944 13.66357422 7.31474304 C11.64469509 7.30973021 9.62581479 7.30516693 7.60693359 7.30107117 C2.6466185 7.29001987 -2.31364111 7.272744 -7.27392578 7.25224304 C-7.89892578 4.87724304 -7.89892578 4.87724304 -8.27392578 2.25224304 C-5.60978235 -0.41190039 -3.62229976 0.01403191 0 0 Z " fill="#252525" transform="translate(119.27392578125,117.74775695800781)"/>
<path d="M0 0 C0.66 0 1.32 0 2 0 C1.67 41.58 1.34 83.16 1 126 C0.34 126 -0.32 126 -1 126 C-1.02332902 109.71929697 -1.04097919 93.43859933 -1.05181217 77.15788364 C-1.05697512 69.59898381 -1.0640178 62.04009435 -1.07543945 54.48120117 C-1.08538632 47.89520334 -1.09185343 41.30921302 -1.09408849 34.72320789 C-1.0953956 31.23386929 -1.09848142 27.74455216 -1.10573006 24.25522041 C-1.11374398 20.36618768 -1.11399114 16.47717622 -1.11352539 12.58813477 C-1.11712067 11.42288773 -1.12071594 10.25764069 -1.12442017 9.05708313 C-1.1230455 8.00393921 -1.12167084 6.95079529 -1.12025452 5.86573792 C-1.12163721 4.48443113 -1.12163721 4.48443113 -1.12304783 3.07521915 C-1 1 -1 1 0 0 Z " fill="#323231" transform="translate(69,53)"/>
<path d="M0 0 C6.27 0 12.54 0 19 0 C19 1.32 19 2.64 19 4 C13.72 4 8.44 4 3 4 C3 10.93 3 17.86 3 25 C6.96 25 10.92 25 15 25 C13 27 13 27 9.99609375 27.23046875 C8.82175781 27.21628906 7.64742187 27.20210937 6.4375 27.1875 C4.67212891 27.17783203 4.67212891 27.17783203 2.87109375 27.16796875 C0 27 0 27 -1 26 C-1.09949077 24.24314326 -1.1308026 22.48232667 -1.1328125 20.72265625 C-1.13410156 19.65208984 -1.13539062 18.58152344 -1.13671875 17.47851562 C-1.13285156 16.35123047 -1.12898438 15.22394531 -1.125 14.0625 C-1.12886719 12.93908203 -1.13273437 11.81566406 -1.13671875 10.65820312 C-1.13542969 9.58634766 -1.13414063 8.51449219 -1.1328125 7.41015625 C-1.13168457 6.42152588 -1.13055664 5.43289551 -1.12939453 4.41430664 C-1 2 -1 2 0 0 Z " fill="#272726" transform="translate(81,108)"/>
<path d="M0 0 C1 3 1 3 0.0625 5.1875 C-0.288125 5.785625 -0.63875 6.38375 -1 7 C-3.31 7 -5.62 7 -8 7 C-8 11.95 -8 16.9 -8 22 C-5.36 22 -2.72 22 0 22 C0 23.65 0 25.3 0 27 C-0.33 26.01 -0.66 25.02 -1 24 C-2.299375 23.855625 -3.59875 23.71125 -4.9375 23.5625 C-8.875 23.125 -8.875 23.125 -10 22 C-10.45765667 19.01110641 -10.70320951 16.01030352 -11 13 C-17.93 12.505 -17.93 12.505 -25 12 C-25.33 10.35 -25.66 8.7 -26 7 C-24 5 -24 5 -21.89282227 4.85229492 C-21.04260498 4.89459229 -20.1923877 4.93688965 -19.31640625 4.98046875 C-18.38892578 5.00947266 -17.46144531 5.03847656 -16.50585938 5.06835938 C-14.54701019 5.14764922 -12.58860296 5.23875774 -10.63085938 5.34179688 C-8.00196745 5.41294662 -5.59192605 5.4513996 -3 5 C-0.73101375 2.67957738 -0.73101375 2.67957738 0 0 Z " fill="#030302" transform="translate(137,150)"/>
<path d="M0 0 C4.66463827 3.30411878 5.11883785 5.35651356 7 11 C12.28 11 17.56 11 23 11 C23 12.32 23 13.64 23 15 C23.59014893 14.99476318 24.18029785 14.98952637 24.78833008 14.98413086 C27.46304255 14.96333953 30.13773801 14.95033299 32.8125 14.9375 C33.74126953 14.92912109 34.67003906 14.92074219 35.62695312 14.91210938 C36.51962891 14.90888672 37.41230469 14.90566406 38.33203125 14.90234375 C39.56530151 14.89448853 39.56530151 14.89448853 40.82348633 14.88647461 C43 15 43 15 46 16 C45.67 40.09 45.34 64.18 45 89 C44.67 89 44.34 89 44 89 C43.98969254 88.1127272 43.97938507 87.22545441 43.96876526 86.31129456 C43.87096575 77.96748429 43.76847685 69.62374785 43.66066074 61.28006077 C43.60539264 56.9900379 43.55196657 52.70000826 43.50268555 48.40991211 C43.45509914 44.27314564 43.40275868 40.13646464 43.34705925 35.99979973 C43.32660966 34.41810153 43.30790097 32.83637988 43.29092598 31.25464058 C43.2669393 29.04670822 43.23687744 26.8389388 43.20532227 24.63110352 C43.18200584 22.74247337 43.18200584 22.74247337 43.15821838 20.81568909 C43.31913196 18.09702459 43.31913196 18.09702459 42 17 C40.51361008 16.84344973 39.02050873 16.74933057 37.52734375 16.68359375 C36.62822266 16.64169922 35.72910156 16.59980469 34.80273438 16.55664062 C33.85720703 16.51732422 32.91167969 16.47800781 31.9375 16.4375 C30.5134082 16.37272461 30.5134082 16.37272461 29.06054688 16.30664062 C26.70718647 16.20020724 24.35371646 16.09818992 22 16 C22 14.68 22 13.36 22 12 C16.39 12 10.78 12 5 12 C3.53515625 8.97265625 3.53515625 8.97265625 2.0703125 5.9453125 C1.03442457 3.84864981 1.03442457 3.84864981 -1 2 C-4.00605709 1.66060646 -6.10071818 1.43736709 -9 2 C-12.31634935 4.97621096 -13.49780117 7.60576023 -14 12 C-15.125 10.3125 -15.125 10.3125 -16 8 C-13.98658695 -0.25499351 -7.49523734 -1.28767449 0 0 Z " fill="#0C0C0B" transform="translate(122,35)"/>
<path d="M0 0 C3.77503074 2.1446382 7.20170502 4.72898843 8.6796875 8.93359375 C10.21462725 18.83582702 10.21462725 18.83582702 7.80078125 23.13671875 C5.20049823 26.26098827 2.79688146 28.44772409 -1 30 C-6.85619975 30.48001637 -10.74894232 29.92847448 -16 27 C-18.73064626 24.33937031 -19.91068971 23.00474077 -20.25 19.1875 C-20.1675 18.465625 -20.085 17.74375 -20 17 C-18 19 -18 19 -17.25 21.4375 C-15.47662867 25.07291123 -13.79487832 25.68904204 -10 27 C-6.8856303 27.49895712 -4.10169738 27.62377309 -1 27 C2.09632649 24.56246638 3.82300487 22.26549269 6 19 C6.19932094 14.81426024 6.33808088 11.01424265 5 7 C4.34 7 3.68 7 3 7 C2.608125 6.525625 2.21625 6.05125 1.8125 5.5625 C-1.60701286 2.61464409 -5.86037155 2.95530869 -10.1875 3.125 C-13.80826802 4.25146116 -14.99661874 5.84082186 -17 9 C-17 9.66 -17 10.32 -17 11 C-17.66 11 -18.32 11 -19 11 C-19.33 11.66 -19.66 12.32 -20 13 C-19.67 10.69 -19.34 8.38 -19 6 C-18.34 6 -17.68 6 -17 6 C-17 5.34 -17 4.68 -17 4 C-12.59433783 -1.34973263 -6.36750656 -1.24223965 0 0 Z " fill="#090908" transform="translate(170,149)"/>
<path d="M0 0 C0.83637497 0.02644089 1.67274994 0.05288177 2.5344696 0.0801239 C5.19430347 0.16758808 7.85272592 0.27683904 10.51171875 0.38671875 C12.31961159 0.45000876 14.12755491 0.51187375 15.93554688 0.57226562 C20.3575259 0.7230805 24.77836771 0.89343339 29.19921875 1.07421875 C29.19921875 1.73421875 29.19921875 2.39421875 29.19921875 3.07421875 C29.85921875 3.40421875 30.51921875 3.73421875 31.19921875 4.07421875 C30.86921875 5.39421875 30.53921875 6.71421875 30.19921875 8.07421875 C16.00921875 8.07421875 1.81921875 8.07421875 -12.80078125 8.07421875 C-13.13078125 6.42421875 -13.46078125 4.77421875 -13.80078125 3.07421875 C-9.2086905 -0.44732324 -5.51306068 -0.25571844 0 0 Z M-11.80078125 3.07421875 C-11.80078125 4.39421875 -11.80078125 5.71421875 -11.80078125 7.07421875 C1.72921875 7.07421875 15.25921875 7.07421875 29.19921875 7.07421875 C28.70421875 5.09421875 28.70421875 5.09421875 28.19921875 3.07421875 C14.99921875 3.07421875 1.79921875 3.07421875 -11.80078125 3.07421875 Z " fill="#020202" transform="translate(124.80078125,79.92578125)"/>
<path d="M0 0 C0.85835449 0.00718552 1.71670898 0.01437103 2.60107422 0.02177429 C3.48134277 0.02223251 4.36161133 0.02269073 5.26855469 0.02316284 C7.13136135 0.02618648 8.99416546 0.03407609 10.85693359 0.0464325 C13.71444621 0.06466883 16.57163454 0.06694234 19.42919922 0.06669617 C21.2364937 0.07161208 23.04378597 0.07744072 24.85107422 0.08427429 C25.70942871 0.08538712 26.5677832 0.08649994 27.45214844 0.08764648 C33.49394641 0.13617914 33.49394641 0.13617914 35.72607422 1.25224304 C35.76879522 2.91836209 35.76671254 4.58607189 35.72607422 6.25224304 C34.72607422 7.25224304 34.72607422 7.25224304 30.75708008 7.36576843 C28.98501815 7.36560924 27.21295162 7.35991089 25.44091797 7.34989929 C24.51009903 7.34848434 23.57928009 7.3470694 22.62025452 7.34561157 C19.63466231 7.33999476 16.64914392 7.32743944 13.66357422 7.31474304 C11.64469509 7.30973021 9.62581479 7.30516693 7.60693359 7.30107117 C2.6466185 7.29001987 -2.31364111 7.272744 -7.27392578 7.25224304 C-7.89892578 4.87724304 -7.89892578 4.87724304 -8.27392578 2.25224304 C-5.60978235 -0.41190039 -3.62229976 0.01403191 0 0 Z M-6.27392578 2.25224304 C-5.94392578 3.57224304 -5.61392578 4.89224304 -5.27392578 6.25224304 C7.92607422 6.25224304 21.12607422 6.25224304 34.72607422 6.25224304 C34.72607422 4.93224304 34.72607422 3.61224304 34.72607422 2.25224304 C21.19607422 2.25224304 7.66607422 2.25224304 -6.27392578 2.25224304 Z " fill="#030303" transform="translate(119.27392578125,117.74775695800781)"/>
<path d="M0 0 C0.78117187 0.04253906 1.56234375 0.08507812 2.3671875 0.12890625 C3.17414063 0.18433594 3.98109375 0.23976563 4.8125 0.296875 C5.61945313 0.33683594 6.42640625 0.37679687 7.2578125 0.41796875 C11.32668384 0.66639819 14.20154563 1.03244933 17.8125 3.046875 C16.40405282 6.26211805 14.70905214 8.36871368 12.1875 10.796875 C11.55585937 11.41046875 10.92421875 12.0240625 10.2734375 12.65625 C9.55027344 13.34460938 9.55027344 13.34460938 8.8125 14.046875 C8.8125 10.80826205 9.4375851 8.94947311 10.8125 6.046875 C11.4725 5.716875 12.1325 5.386875 12.8125 5.046875 C12.8125 4.386875 12.8125 3.726875 12.8125 3.046875 C9.83327407 3.02003513 6.85428705 3.00011463 3.875 2.984375 C3.02486328 2.97599609 2.17472656 2.96761719 1.29882812 2.95898438 C0.48994141 2.95576172 -0.31894531 2.95253906 -1.15234375 2.94921875 C-1.9012085 2.94398193 -2.65007324 2.93874512 -3.42163086 2.93334961 C-5.21417739 2.85345748 -5.21417739 2.85345748 -6.1875 4.046875 C-6.28696453 5.81546693 -6.31830217 7.58798951 -6.3203125 9.359375 C-6.32160156 10.43445313 -6.32289062 11.50953125 -6.32421875 12.6171875 C-6.32035156 13.74898437 -6.31648438 14.88078125 -6.3125 16.046875 C-6.31636719 17.17867187 -6.32023437 18.31046875 -6.32421875 19.4765625 C-6.32292969 20.55164063 -6.32164063 21.62671875 -6.3203125 22.734375 C-6.31918457 23.72824219 -6.31805664 24.72210938 -6.31689453 25.74609375 C-6.4458433 28.01062726 -6.4458433 28.01062726 -5.1875 29.046875 C-3.40880274 29.20451905 -1.62431524 29.29788177 0.16015625 29.36328125 C1.77954102 29.42612305 1.77954102 29.42612305 3.43164062 29.49023438 C4.56794922 29.52955078 5.70425781 29.56886719 6.875 29.609375 C8.01517578 29.65255859 9.15535156 29.69574219 10.33007812 29.74023438 C13.15742195 29.84670339 15.98485738 29.94871707 18.8125 30.046875 C18.8125 29.386875 18.8125 28.726875 18.8125 28.046875 C19.4725 28.046875 20.1325 28.046875 20.8125 28.046875 C20.4825 29.036875 20.1525 30.026875 19.8125 31.046875 C15.52088953 31.10471342 11.22937855 31.1404162 6.9375 31.171875 C5.71417969 31.18863281 4.49085937 31.20539063 3.23046875 31.22265625 C1.48056641 31.23232422 1.48056641 31.23232422 -0.3046875 31.2421875 C-1.38347168 31.25266113 -2.46225586 31.26313477 -3.57373047 31.27392578 C-6.1875 31.046875 -6.1875 31.046875 -8.1875 29.046875 C-8.41455078 26.34130859 -8.41455078 26.34130859 -8.3828125 22.9453125 C-8.37636719 21.73359375 -8.36992188 20.521875 -8.36328125 19.2734375 C-8.34652344 18.00242187 -8.32976562 16.73140625 -8.3125 15.421875 C-8.29896484 13.50375 -8.29896484 13.50375 -8.28515625 11.546875 C-8.26152303 8.38002333 -8.22857629 5.21354076 -8.1875 2.046875 C-5.28274251 0.38071916 -3.33767627 -0.18694635 0 0 Z " fill="#010101" transform="translate(87.1875,68.953125)"/>
<path d="M0 0 C1.32 0 2.64 0 4 0 C4 3 4 3 2.49609375 4.578125 C1.81675781 5.12984375 1.13742188 5.6815625 0.4375 6.25 C-3.60594654 9.63035014 -7.32727213 13.22397665 -11 17 C-13.62901288 15.47793991 -15.84365964 14.15634036 -18 12 C-18 10.68 -18 9.36 -18 8 C-14 9 -14 9 -12.0546875 9.71875 C-9.94124555 10.25232254 -9.94124555 10.25232254 -8.3671875 8.78515625 C-7.87476562 8.21667969 -7.38234375 7.64820312 -6.875 7.0625 C-5.95043421 6.01098606 -4.99717368 4.98292834 -4 4 C-3.34 4 -2.68 4 -2 4 C-1.34 2.68 -0.68 1.36 0 0 Z " fill="#272727" transform="translate(105,110)"/>
<path d="M0 0 C0.66 0.66 1.32 1.32 2 2 C4.32275177 2.40047444 6.65739357 2.7397104 9 3 C9.22126178 5.45779976 9.42750395 7.91527648 9.625 10.375 C9.68945312 11.07367188 9.75390625 11.77234375 9.8203125 12.4921875 C9.96119739 14.32369111 9.98761659 16.16312748 10 18 C7.4345406 20.5654594 5.52313332 20.54046087 2 21 C1.21717352 22.79199472 1.21717352 22.79199472 1 25 C1.495 25.66 1.99 26.32 2.5 27 C4 29 4 29 3.9375 30.875 C2.61904794 33.86349134 0.95701905 36.39064126 -1 39 C-1.66 39 -2.32 39 -3 39 C-3 39.66 -3 40.32 -3 41 C-3.99 41 -4.98 41 -6 41 C-4.44499019 37.18315774 -1.96404505 34.80804268 1 32 C0.690625 31.4225 0.38125 30.845 0.0625 30.25 C-1.57523104 26.78186369 -2.34620908 25.06335647 -1.125 21.3125 C0 19 0 19 1 18 C3.31 18 5.62 18 8 18 C8 13.38 8 8.76 8 4 C5.69 4 3.38 4 1 4 C0.67 2.68 0.34 1.36 0 0 Z " fill="#070707" transform="translate(191,153)"/>
<path d="M0 0 C1.26650391 0.00966797 1.26650391 0.00966797 2.55859375 0.01953125 C3.43128906 0.03628906 4.30398437 0.05304688 5.203125 0.0703125 C6.53537109 0.08384766 6.53537109 0.08384766 7.89453125 0.09765625 C10.08100558 0.12116673 12.26692594 0.15402751 14.453125 0.1953125 C14.453125 1.1853125 14.453125 2.1753125 14.453125 3.1953125 C13.55219116 3.18745728 13.55219116 3.18745728 12.63305664 3.17944336 C9.92725662 3.15873236 7.22147323 3.14567125 4.515625 3.1328125 C3.57009766 3.12443359 2.62457031 3.11605469 1.65039062 3.10742188 C0.75126953 3.10419922 -0.14785156 3.10097656 -1.07421875 3.09765625 C-1.90687256 3.09241943 -2.73952637 3.08718262 -3.59741211 3.08178711 C-5.55204298 2.97887958 -5.55204298 2.97887958 -6.546875 4.1953125 C-6.64633953 5.96390443 -6.67767717 7.73642701 -6.6796875 9.5078125 C-6.68097656 10.58289063 -6.68226562 11.65796875 -6.68359375 12.765625 C-6.67972656 13.89742187 -6.67585938 15.02921875 -6.671875 16.1953125 C-6.67574219 17.32710937 -6.67960937 18.45890625 -6.68359375 19.625 C-6.68230469 20.70007813 -6.68101563 21.77515625 -6.6796875 22.8828125 C-6.67855957 23.87667969 -6.67743164 24.87054688 -6.67626953 25.89453125 C-6.8052183 28.15906476 -6.8052183 28.15906476 -5.546875 29.1953125 C-3.76817774 29.35295655 -1.98369024 29.44631927 -0.19921875 29.51171875 C1.42016602 29.57456055 1.42016602 29.57456055 3.07226562 29.63867188 C4.20857422 29.67798828 5.34488281 29.71730469 6.515625 29.7578125 C7.65580078 29.80099609 8.79597656 29.84417969 9.97070312 29.88867188 C12.79804695 29.99514089 15.62548238 30.09715457 18.453125 30.1953125 C18.453125 30.5253125 18.453125 30.8553125 18.453125 31.1953125 C6.078125 31.6903125 6.078125 31.6903125 -6.546875 32.1953125 C-9.921875 25.4453125 -9.921875 25.4453125 -9.62109375 20.359375 C-9.56630859 19.29589844 -9.51152344 18.23242188 -9.45507812 17.13671875 C-9.38224609 16.04230469 -9.30941406 14.94789063 -9.234375 13.8203125 C-9.17314453 12.70269531 -9.11191406 11.58507812 -9.04882812 10.43359375 C-8.89620091 7.68630386 -8.72844583 4.94081605 -8.546875 2.1953125 C-5.55561181 0.47325062 -3.44001787 -0.04648673 0 0 Z " fill="#010101" transform="translate(87.546875,142.8046875)"/>
<path d="M0 0 C0 4 0 4 -1.57421875 5.74609375 C-2.27160156 6.30425781 -2.96898438 6.86242187 -3.6875 7.4375 C-6.23306509 9.51615368 -8.56772699 11.54408774 -10.75 14 C-13 16 -13 16 -15.0625 16.0625 C-17.55595638 14.69512069 -19.19318981 13.1939838 -21 11 C-21 10.01 -21 9.02 -21 8 C-19.0625 8.3125 -19.0625 8.3125 -17 9 C-16.67 9.99 -16.34 10.98 -16 12 C-15.01 12 -14.02 12 -13 12 C-12.75121094 11.42765625 -12.50242187 10.8553125 -12.24609375 10.265625 C-10.81574627 7.66499322 -9.15335326 5.85253401 -7.0625 3.75 C-6.02802734 2.69039062 -6.02802734 2.69039062 -4.97265625 1.609375 C-3 0 -3 0 0 0 Z " fill="#2B2B2B" transform="translate(108,147)"/>
<path d="M0 0 C-1.56877688 3.85063416 -4.0161728 6.15180131 -7 9 C-8.10676776 10.10155944 -9.21094056 11.20573224 -10.3125 12.3125 C-11.199375 13.199375 -12.08625 14.08625 -13 15 C-18.75 13.25 -18.75 13.25 -21 11 C-20.625 8.875 -20.625 8.875 -20 7 C-17.50638429 8.20381448 -15.31856917 9.45428722 -13 11 C-12.73960938 10.41734375 -12.47921875 9.8346875 -12.2109375 9.234375 C-10.92056825 6.85343561 -9.51586504 5.1821503 -7.625 3.25 C-6.74714844 2.32960938 -6.74714844 2.32960938 -5.8515625 1.390625 C-4 0 -4 0 0 0 Z " fill="#292928" transform="translate(108,74)"/>
<path d="M0 0 C6.6 0 13.2 0 20 0 C20.33 0.66 20.66 1.32 21 2 C17.89914429 4.06723714 17.27068319 4.24497423 13.76953125 4.1953125 C12.96708984 4.18886719 12.16464844 4.18242188 11.33789062 4.17578125 C10.50451172 4.15902344 9.67113281 4.14226563 8.8125 4.125 C7.96751953 4.11597656 7.12253906 4.10695313 6.25195312 4.09765625 C4.16784757 4.07410703 2.08388783 4.03823647 0 4 C0 2.68 0 1.36 0 0 Z " fill="#252525" transform="translate(144,51)"/>
<path d="M0 0 C6.27 0 12.54 0 19 0 C19 1.32 19 2.64 19 4 C13.72 4 8.44 4 3 4 C3 3.67 3 3.34 3 3 C7.62 2.67 12.24 2.34 17 2 C11.72 1.67 6.44 1.34 1 1 C0.67 9.25 0.34 17.5 0 26 C-0.33 26 -0.66 26 -1 26 C-1.02892857 22.04168191 -1.04677427 18.08339083 -1.0625 14.125 C-1.07087891 12.99707031 -1.07925781 11.86914062 -1.08789062 10.70703125 C-1.09111328 9.63066406 -1.09433594 8.55429688 -1.09765625 7.4453125 C-1.10289307 6.45031738 -1.10812988 5.45532227 -1.11352539 4.43017578 C-1 2 -1 2 0 0 Z " fill="#1B1B1A" transform="translate(81,108)"/>
<path d="M0 0 C0.33 0 0.66 0 1 0 C1.33 6.27 1.66 12.54 2 19 C5.96 19 9.92 19 14 19 C12 21 12 21 8.9609375 21.1953125 C7.77757813 21.17210937 6.59421875 21.14890625 5.375 21.125 C4.18648438 21.10695312 2.99796875 21.08890625 1.7734375 21.0703125 C0.85820313 21.04710937 -0.05703125 21.02390625 -1 21 C-1.13794954 13.93391809 -0.74805717 7.02639415 0 0 Z " fill="#2E2E2D" transform="translate(82,114)"/>
<path d="M0 0 C4.29 0 8.58 0 13 0 C13 1.32 13 2.64 13 4 C8.71 4 4.42 4 0 4 C0 2.68 0 1.36 0 0 Z " fill="#272724" transform="translate(113,157)"/>
<path d="M0 0 C2.4375 0.375 2.4375 0.375 5 1 C5.33 1.66 5.66 2.32 6 3 C4.02 5.31 2.04 7.62 0 10 C0 6.48283697 0.82445585 5.62878252 3 3 C2.01 3 1.02 3 0 3 C0 2.01 0 1.02 0 0 Z M-3 10 C-2.34 10.33 -1.68 10.66 -1 11 C-3.31 13.31 -5.62 15.62 -8 18 C-8.66 17.67 -9.32 17.34 -10 17 C-7.69 14.69 -5.38 12.38 -3 10 Z " fill="#0C0C0B" transform="translate(105,71)"/>
<path d="M0 0 C0.78375 0.04125 1.5675 0.0825 2.375 0.125 C3 3.5 3 3.5 3.375 7.125 C2.715 7.785 2.055 8.445 1.375 9.125 C-3.18055556 8.56944444 -3.18055556 8.56944444 -4.625 7.125 C-4.8125 4.6875 -4.8125 4.6875 -4.625 2.125 C-2.625 0.125 -2.625 0.125 0 0 Z M-2.625 2.125 C-2.955 3.445 -3.285 4.765 -3.625 6.125 C-2.305 6.455 -0.985 6.785 0.375 7.125 C1.035 6.135 1.695 5.145 2.375 4.125 C1.715 3.465 1.055 2.805 0.375 2.125 C-0.615 2.125 -1.605 2.125 -2.625 2.125 Z " fill="#0A0A09" transform="translate(117.625,40.875)"/>
<path d="M0 0 C0 0.66 0 1.32 0 2 C-0.9075 2.061875 -1.815 2.12375 -2.75 2.1875 C-6.76291479 3.1907287 -7.82113115 4.56409143 -10 8 C-10 8.66 -10 9.32 -10 10 C-10.66 10 -11.32 10 -12 10 C-12.33 10.66 -12.66 11.32 -13 12 C-12.67 9.69 -12.34 7.38 -12 5 C-11.34 5 -10.68 5 -10 5 C-10 4.34 -10 3.68 -10 3 C-6.27034861 0.96564469 -4.33094958 0 0 0 Z " fill="#050505" transform="translate(163,150)"/>
<path d="M0 0 C0.66 0.33 1.32 0.66 2 1 C1.06027344 1.90492188 1.06027344 1.90492188 0.1015625 2.828125 C-0.71570313 3.62734375 -1.53296875 4.4265625 -2.375 5.25 C-3.59316406 6.43335938 -3.59316406 6.43335938 -4.8359375 7.640625 C-6.75583143 9.73379455 -7.91633685 11.40397179 -9 14 C-10.32 13.34 -11.64 12.68 -13 12 C-12.48050781 11.55269531 -11.96101563 11.10539063 -11.42578125 10.64453125 C-7.47320346 7.21798969 -3.64172918 3.75553321 0 0 Z " fill="#0A0A0A" transform="translate(106,151)"/>
<path d="M0 0 C0.66 0 1.32 0 2 0 C2 4.29 2 8.58 2 13 C1.01 13 0.02 13 -1 13 C-0.67 8.71 -0.34 4.42 0 0 Z " fill="#2F2F2E" transform="translate(105,158)"/>
<path d="M0 0 C0.33 0.99 0.66 1.98 1 3 C-0.2065625 4.11375 -0.2065625 4.11375 -1.4375 5.25 C-3.76988591 7.75304829 -4.63534394 8.7180955 -5 12 C-5.66 11.34 -6.32 10.68 -7 10 C-6.75558954 7.47442523 -6.17639341 6.2147398 -4.5625 4.25 C-3 3 -3 3 -1 3 C-0.67 2.01 -0.34 1.02 0 0 Z " fill="#262625" transform="translate(142,136)"/>
<path d="M0 0 C0.66 0 1.32 0 2 0 C2 7.26 2 14.52 2 22 C1.67 22 1.34 22 1 22 C1 15.73 1 9.46 1 3 C0.34 3 -0.32 3 -1 3 C-0.67 2.01 -0.34 1.02 0 0 Z " fill="#343434" transform="translate(163,53)"/>
<path d="M0 0 C0.33 0 0.66 0 1 0 C1.36923077 5.41538462 1.36923077 5.41538462 -0.5 8.375 C-0.995 8.91125 -1.49 9.4475 -2 10 C-3.05236973 6.65155086 -3.20005388 5.40920111 -1.625 2.1875 C-1.08875 1.465625 -0.5525 0.74375 0 0 Z " fill="#0C0C0C" transform="translate(192,143)"/>
<path d="M0 0 C0.33 0 0.66 0 1 0 C1 1.65 1 3.3 1 5 C1.804375 5.28875 2.60875 5.5775 3.4375 5.875 C6 7 6 7 7 9 C4.69 8.34 2.38 7.68 0 7 C0 4.69 0 2.38 0 0 Z " fill="#0A0A09" transform="translate(171,130)"/>
<path d="M0 0 C1.32 0.66 2.64 1.32 4 2 C3.01 2.495 3.01 2.495 2 3 C2.33 4.32 2.66 5.64 3 7 C1.68 6.01 0.36 5.02 -1 4 C-0.67 2.68 -0.34 1.36 0 0 Z " fill="#212121" transform="translate(88,81)"/>
<path d="M0 0 C0 1.32 0 2.64 0 4 C-0.99 4.33 -1.98 4.66 -3 5 C-3.99 4.34 -4.98 3.68 -6 3 C-3.375 0 -3.375 0 0 0 Z " fill="#252525" transform="translate(108,147)"/>
<path d="M0 0 C0.66 0 1.32 0 2 0 C2 0.66 2 1.32 2 2 C3.65 1.67 5.3 1.34 7 1 C6.34 2.32 5.68 3.64 5 5 C3.68 4.67 2.36 4.34 1 4 C0.67 2.68 0.34 1.36 0 0 Z " fill="#31312F" transform="translate(90,84)"/>
<path d="" fill="#000000" transform="translate(0,0)"/>
<path d="" fill="#000000" transform="translate(0,0)"/>
<path d="" fill="#000000" transform="translate(0,0)"/>
<path d="" fill="#000000" transform="translate(0,0)"/>
<path d="" fill="#000000" transform="translate(0,0)"/>
<path d="" fill="#000000" transform="translate(0,0)"/>
<path d="" fill="#000000" transform="translate(0,0)"/>
<path d="" fill="#000000" transform="translate(0,0)"/>
<path d="" fill="#000000" transform="translate(0,0)"/>
</svg>
